<svg xmlns="http://www.w3.org/2000/svg" xml:space="preserve" width="1500" height="1500" data-id="lg_wx5qk50bTNqALX7fVV" data-version="1"><path fill="#e9d3f6" stroke="transparent" d="M0 0h1500v1500H0z"/><g data-padding="20"><g transform="translate(-590.58 -603.477)scale(1.74596)"><path fill="#56008a" stroke="transparent" d="M689.835 804.171q-.62-.07-1.54-.14-.77-.08-1.88-.11-1.12-.04-2.51-.04-2.71 0-6.45.26-3.73.25-8.31.98 1.94-8.16 2.69-16t.75-15.09q0-6.59-.51-12.39-.51-5.81-1.36-10.71 3.67.65 6.58.87t5.03.22q1.47 0 2.58-.07 1.12-.07 1.85-.15.88-.11 1.5-.22 1.25 7.18 3.12 14.2 1.86 7.01 4.61 14.08 2.31-7.15 3.66-14.3 1.36-7.16 1.83-14.63l.3.65-.3-.65q3.67.65 6.67.87t5.31.22q1.54 0 2.71-.07t2.01-.15q.96-.11 1.65-.22-.77 3.67-1.17 8.67-.4 4.99-.4 10.71 0 4.06.22 8.37.22 4.3.67 8.56.46 4.27 1.19 8.41.74 4.14 1.76 7.87l-1.68-.14q-.84-.08-1.98-.11-1.14-.04-2.64-.04-2.85 0-6.72.26-3.86.25-8.44.98.92-1.83 1.52-4.68.61-2.86.99-6.08.39-3.22.59-6.43.2-3.2.27-5.73-1.06 2.27-2.05 4.61-.99 2.35-2.03 5-1.05 2.66-2.18 5.73-1.14 3.08-2.49 6.85l-2.53-6.85q-1.13-3.07-2.14-5.71t-1.98-5-1.99-4.7q.33 5.78 1.1 11.4.76 5.63 2.12 10.64m71.23-41.87q-.41 1.54-.68 3.7t-.49 4.65-.35 5.2l-.24 5.28q-.22 6.04-.26 12.74 0 3.74-.45 7.36-.46 3.63-1.47 6.87t-2.6 6.01q-1.59 2.76-3.88 4.76-2.29 1.99-5.31 3.13-3.02 1.13-6.83 1.13-3.55 0-6.15-.73t-4.31-2.07q-1.7-1.34-2.52-3.2-.83-1.87-.83-4.11 0-2.23.77-4.04t2.02-3.06q1.24-1.24 2.82-1.92 1.57-.68 3.18-.68 2.05 0 3.88 1.17t2.79 3.7q-.22-.18-.5-.24-.27-.05-.57-.05-.4 0-.82.18t-.75.51-.53.75q-.2.43-.2.9 0 .55.22.94.22.38.53.6t.69.31q.39.09.72.09.51 0 1.28-.22t1.59-.91q.83-.7 1.65-1.94.82-1.25 1.47-3.32.64-2.07 1.02-5.03.39-2.97.35-7.11-.95 2.57-2 4.16-1.04 1.59-2.19 2.47-1.16.88-2.42 1.17-1.26.3-2.69.3-1.8 0-3.76-.65-1.96-.64-3.59-2.27t-2.69-4.45-1.06-7.17q0-.59.02-.83l.02-.36q0-.13.03-.31.04-.19.04-.72l.02-1.52q.02-.99.02-2.78 0-2.09-.08-4.73-.07-2.63-.31-5.16t-.67-4.6q-.44-2.06-1.14-3.05 2.97.51 5.58.69 2.62.19 4.78.19 1.43 0 2.59-.06 1.15-.05 1.99-.13.95-.07 1.72-.18-.29.62-.64 2.38t-.68 4.21-.54 5.37q-.22 2.91-.22 5.87 0 2.24.32 3.81.33 1.58.9 2.58.57 1.01 1.32 1.49.75.47 1.63.47 1.39 0 2.22-1.13.82-1.14 1.41-2.86-.08-2.27-.26-5.31t-.5-6.33q-.31-3.3-.8-6.65-.5-3.35-1.23-6.24 1.14.4 2.71.73 1.36.29 3.3.49t4.58.2q3.11 0 7.03-.44m30.91-16.39q-.44 2.6-.68 5.11t-.24 4.92v1.5q0 .77.07 1.51-.88-1.47-2.19-2.2-1.32-.73-2.6-.73-.88 0-1.73.36-.84.37-1.46 1.1t-1.01 1.83q-.38 1.1-.38 2.57l9.15-.37q-.4 1.68-.53 3.42t-.13 3.61q0 1.03.04 2.05.04 1.03.11 2.09-2.31-.29-4.39-.53-2.09-.24-4.4-.24-.07 2.64-.11 5.36-.03 2.73-.03 5.44 0 5.79.31 11.46.31 5.68 1.33 11.06-4.1-.84-8.53-.84-2.31 0-4.56.22t-4.45.62q.84-3.62 1.32-7.8.48-4.17.71-8.49.24-4.32.35-8.57l.19-7.98q-1.18.07-2.57.2-1.39.12-2.56.31.18-1.61.29-3.13t.11-3.1q0-1.39-.07-2.76-.08-1.38-.33-2.88l5.56.3q0-3.81.97-6.98.98-3.17 2.92-5.46t4.85-3.55 6.79-1.26q1.25 0 2.18.16.93.17 1.81.44l1.8.59q.91.31 2.09.64m37.87 58.98-1.61-.14q-.77-.07-1.85-.11t-2.36-.04q-1.83 0-4.01.15-2.18.14-4.49.55l.15-10.29q-1.39 5.45-4.08 8.42-2.7 2.97-6.32 2.97-1.14 0-2.56-.3-1.43-.29-2.92-1.11-1.48-.83-2.89-2.29-1.41-1.47-2.51-3.79-1.1-2.33-1.76-5.64-.65-3.32-.65-7.86 0-6.15 1.24-10.53 1.25-4.37 3.19-7.16 1.94-2.78 4.28-4.06t4.58-1.28q1.9 0 3.46.53t2.76 1.35q1.21.83 2.09 1.85.88 1.03 1.43 2.05-.11-1.24-.33-2.65t-.51-2.91q2.38.47 4.83.62 2.46.15 4.54.15 2.49 0 4.03-.11.88-.04 1.61-.11-.4 1.83-.73 4.1t-.57 4.85-.36 5.42q-.13 2.84-.13 5.81 0 5.52.55 11.09t1.9 10.47m-15.05-20.98v-5.93q0-.99-.11-2.02-.11-1.02-.49-1.86-.39-.85-1.12-1.38t-1.98-.53q-1.32 0-2.18.92-.86.91-1.39 2.51-.53 1.59-.73 3.77t-.2 4.74q0 1.47.2 2.97t.68 2.73q.47 1.22 1.28 1.99.8.77 1.98.77 1.31 0 2.12-.92.81-.91 1.23-2.27.42-1.35.56-2.83.15-1.49.15-2.66m35.51 20.34-1.46-.11-1.72-.08q-.99-.03-2.27-.03-2.38 0-5.5.2-3.11.2-6.74.75.7-1.39 1.18-3.5.47-2.1.78-4.5.32-2.4.48-4.86.16-2.45.24-4.5.07-2.05.09-3.48l.02-1.79q-.08-4.76-.33-8.9-.11-1.76-.28-3.55-.16-1.8-.38-3.39-.22-1.6-.5-2.86-.27-1.26-.64-1.99 2.97.51 5.5.69 2.52.18 4.57.18 1.32 0 2.37-.05 1.04-.06 1.77-.13.88-.07 1.54-.18-.66 3.29-1.08 7.94-.42 4.66-.42 9.97 0 3.04.15 6.15.14 3.11.47 6.21.33 3.09.86 6.07.53 2.99 1.3 5.74m-16.81-52.37q0-1.69.64-3.17.65-1.48 1.76-2.6 1.12-1.12 2.62-1.76t3.19-.64q1.68 0 3.16.64 1.49.64 2.6 1.76 1.12 1.12 1.76 2.6t.64 3.17q0 1.68-.64 3.18-.64 1.51-1.76 2.62-1.11 1.12-2.6 1.76-1.48.64-3.16.64-1.69 0-3.19-.64t-2.62-1.76q-1.11-1.11-1.76-2.62-.64-1.5-.64-3.18m39.49 19.3q-1.13 0-2.05.64t-1.63 1.79q-.71 1.16-1.24 2.77-.54 1.61-.86 3.55 0 3.11.14 6.3.15 3.18.48 6.3.33 3.11.86 6.08.53 2.96 1.3 5.64l-1.36-.11-1.59-.08q-.93-.03-2.14-.03-2.27 0-5.26.2-2.98.2-6.61.75.44-2.05.77-5.02t.55-6.44q.22-3.48.35-7.27t.13-7.49q0-2.75-.08-5.39-.07-2.63-.2-4.98-.13-2.34-.35-4.32t-.51-3.4q2.97.51 5.4.71 2.44.2 4.38.2 1.24 0 2.2-.05.95-.06 1.64-.13.77-.11 1.4-.22-.44 1.83-.66 4.06 1.9-2.3 4.15-3.4 2.26-1.1 4.23-1.1 3.3 0 5.57 1.19t3.66 3.11q1.39 1.93 2.02 4.38.62 2.45.62 4.98 0 2.45-.7 4.8-.69 2.34-2.01 4.19t-3.26 2.98q-1.94 1.14-4.39 1.14-2.17 0-3.69-.73t-2.5-1.91q-.99-1.17-1.45-2.58t-.46-2.8q0-1.46.42-2.86.42-1.39 1.23-2.52.26.8.64 1.22.39.42.79.61.44.22.95.25 1.36 0 2.03-.62.68-.62.68-1.46 0-.41-.15-.92-.14-.51-.53-.95-.38-.44-1.08-.75-.69-.31-1.83-.31m48.96 2.16q0 1.54-.53 3.07-.53 1.54-1.52 2.77t-2.43 2.01q-1.45.79-3.24.79-1.61 0-2.75-.55t-1.87-1.43-1.08-2.03-.35-2.36q0-2.57 1.25-4.43.18.62.53.93t.64.46q.37.14.73.18 1.07 0 1.36-.47.29-.48.36-1.1 0-.63-.47-1.21-.48-.59-1.65-.59-.33 0-.93.09-.61.1-1.36.46-.75.37-1.52 1.08-.77.72-1.41 1.98t-1.04 3.15-.4 4.56q0 2.74.8 4.45.81 1.7 1.92 2.63 1.12.94 2.37 1.27 1.24.33 2.12.33.77 0 1.94-.28 1.17-.27 2.33-1 1.15-.74 2.1-2.04t1.28-3.35q.99 1.47 1.58 3.5.58 2.03.58 4.23 0 3-1.11 5.86-1.12 2.86-3.15 5.07-2.03 2.22-4.89 3.55-2.86 1.34-6.3 1.34-2.56 0-4.76-.82-2.2-.83-3.97-2.29-1.78-1.47-3.17-3.46-1.39-2-2.33-4.32-.93-2.33-1.41-4.89-.47-2.57-.47-5.13 0-2.86.62-5.82.62-2.97 1.78-5.72 1.15-2.74 2.83-5.16 1.69-2.42 3.81-4.19 2.13-1.78 4.69-2.82 2.56-1.05 5.46-1.05 2.6 0 4.57.63 1.98.62 3.45 1.64 1.46 1.03 2.41 2.37.96 1.33 1.54 2.74.59 1.41.83 2.8.23 1.4.23 2.57m37.5 9.67q0 2.12-.33 4.66-.33 2.55-1.09 5.13-.77 2.58-2.09 5.02-1.32 2.43-3.28 4.3t-4.67 3q-2.71 1.14-6.3 1.14t-6.28-1.06-4.61-2.84-3.17-4.1q-1.25-2.33-1.98-4.89t-1-5.18q-.28-2.62-.28-4.96 0-4.14 1.1-8.12 1.1-3.97 3.35-7.08 2.25-3.12 5.64-5.02t7.96-1.9q3.08 0 5.53.93 2.46.93 4.36 2.55 1.91 1.61 3.24 3.77 1.34 2.16 2.22 4.57.88 2.42 1.28 5.02t.4 5.06m-12.74 1.2q0-.84-.06-2.1-.05-1.27-.23-2.66-.19-1.39-.5-2.78t-.82-2.49-1.27-1.79q-.75-.7-1.77-.7-.99 0-1.72.66t-1.27 1.72q-.53 1.06-.87 2.4-.35 1.34-.55 2.67-.21 1.34-.3 2.57-.09 1.22-.09 2.06 0 1.21.18 2.93.19 1.73.7 3.3t1.41 2.69 2.36 1.12q1.39 0 2.33-1.03.93-1.02 1.48-2.51.55-1.48.77-3.13.22-1.64.22-2.93m15.09-21.83 1.9.14q.92.08 2.14.11 1.23.04 2.7.04 2.05 0 4.41-.13t4.67-.53q-.44.84-.75 2.25t-.53 3.28q1.5-3.29 4.01-5.13 2.5-1.83 6.35-1.83.84 0 2.14.11t2.75.74q1.45.62 2.89 1.92 1.45 1.3 2.6 3.68 1.16 2.38 1.87 5.99.71 3.6.71 8.88 0 4.39-.64 7.85t-1.72 6.1-2.53 4.49q-1.44 1.84-3.03 3.02-1.6 1.17-3.26 1.7-1.67.53-3.21.53-1.79 0-3.31-.73t-2.69-2.03q-1.18-1.3-2.02-3.12-.84-1.81-1.28-3.97.04 1.68.15 3.92.11 2.23.25 4.63.15 2.4.33 4.82.19 2.41.41 4.48.21 2.07.49 3.61.27 1.54.6 2.2-2.93-.52-5.45-.68-2.53-.17-4.58-.17-1.32 0-2.38.04t-1.8.11q-.87.07-1.53.15.36-1.83.69-4.78t.57-6.63.38-7.91q.15-4.23.15-8.66 0-4.07-.13-8.09-.13-4.03-.42-7.73t-.77-6.94q-.47-3.24-1.13-5.73m15.05 18.02v5.89q0 .99.11 2.02.11 1.02.49 1.86.39.85 1.12 1.38t1.98.53q.88 0 1.5-.7.62-.69 1.02-1.79.41-1.1.66-2.46.26-1.35.37-2.69.11-1.33.15-2.49.03-1.15.03-1.81 0-.99-.09-2.42t-.42-2.78q-.33-1.36-1.01-2.31-.67-.95-1.85-.95-1.31 0-2.12.93-.81.94-1.23 2.27-.42 1.34-.56 2.86-.15 1.52-.15 2.66m62.25-18.1q-.4 1.54-.67 3.7-.28 2.16-.5 4.65t-.35 5.2l-.23 5.28q-.22 6.04-.26 12.74 0 3.74-.46 7.36-.46 3.63-1.46 6.87-1.01 3.24-2.6 6.01-1.6 2.76-3.88 4.76-2.29 1.99-5.31 3.13-3.03 1.13-6.83 1.13-3.56 0-6.16-.73t-4.3-2.07-2.53-3.2q-.82-1.87-.82-4.11 0-2.23.77-4.04t2.01-3.06q1.25-1.24 2.82-1.92 1.58-.68 3.19-.68 2.05 0 3.88 1.17t2.78 3.7q-.22-.18-.49-.24-.28-.05-.57-.05-.4 0-.82.18t-.75.51-.53.75q-.21.43-.21.9 0 .55.22.94.22.38.54.6.31.22.69.31.39.09.72.09.51 0 1.28-.22t1.59-.91q.82-.7 1.65-1.94.82-1.25 1.46-3.32t1.03-5.03q.38-2.97.35-7.11-.96 2.57-2 4.16t-2.2 2.47q-1.15.88-2.41 1.17-1.27.3-2.7.3-1.79 0-3.75-.65-1.96-.64-3.59-2.27t-2.69-4.45-1.06-7.17q0-.59.02-.83l.01-.36q0-.13.04-.31.04-.19.04-.72l.02-1.52.01-2.78q0-2.09-.07-4.73-.07-2.63-.31-5.16t-.68-4.6q-.44-2.06-1.13-3.05 2.96.51 5.58.69 2.62.19 4.78.19 1.43 0 2.58-.06 1.16-.05 2-.13.95-.07 1.72-.18-.29.62-.64 2.38t-.68 4.21-.55 5.37q-.22 2.91-.22 5.87 0 2.24.33 3.81.33 1.58.9 2.58.57 1.01 1.32 1.49.75.47 1.63.47 1.39 0 2.21-1.13.83-1.14 1.41-2.86-.07-2.27-.25-5.31-.19-3.04-.5-6.33-.31-3.3-.8-6.65-.5-3.35-1.23-6.24 1.14.4 2.71.73 1.35.29 3.3.49 1.94.2 4.57.2 3.12 0 7.03-.44"/><rect width="375.53" height="84.75" x="174.995" y="333.891" fill="none" rx="0" ry="0" transform="translate(493.23 408.25)"/><path fill="#56008a" d="M585.555 812.574c6.576-5.166 20.073-18.991 24.764-34.735a31806 31806 0 0 1-65.994-82.131c-1.066 12.3-11.857 38.146-30.586 46.789a131 131 0 0 1-20.45 7.74l64.09 77.606c7.233-2.346 21.55-10.054 28.192-15.252m43.28 4.854a211.6 211.6 0 0 1-33.9 16.285 927 927 0 0 1-36.719 12.579v8.397l70.619-25.371Zm-136.967-64.747v23.32l63.649 78.491.065-24.682Z"/><path fill="#56008a" d="M626.096 809.38a180.4 180.4 0 0 1-29.98 18.63c-10.692 5.363-34.243 12.579-37.884 13.678v1.886c6.068-1.804 21.386-6.396 34.834-11.513 14.924-5.658 36.277-19.057 36.277-19.057Zm-12.858-32.131-.197.656c-4.674 16.63-18.45 30.93-25.846 36.736-6.921 5.46-21.32 13.218-28.946 15.694v3.56c10.709-3.346 25.666-10.431 33.98-16.286 14.269-10.037 28.209-23.993 36.77-36.736l.065.066c-9.643-10.906-63.304-72.308-66.764-76.736-1.181 2.23-2.247 3.706-3.97 4.74 17.762 22.156 46.905 58.466 54.449 67.748Z"/><path fill="#56008a" d="M623.8 792.146s-19.008 19.828-30.045 27.618c-9.348 6.56-23.78 13.021-35.49 16.679v2.46l5.347-1.673c8.642-2.755 23.632-7.757 31.34-11.611 15.252-7.61 28.897-16.843 37.441-25.224l.279-.262Z"/></g><path fill="transparent" stroke="transparent" stroke-width="1.812" d="M250 605.978h1000v288.044H250z"/></g></svg>